<svg xmlns="http://www.w3.org/2000/svg" width="22" height="22" viewBox="0 0 22 22">
  <defs>
    <style>
      .cls-1 {
        fill: #00c2cc;
      }
    </style>
  </defs>
  <path id="Combined_Shape" data-name="Combined Shape" class="cls-1" d="M3.222,18.778A11,11,0,1,1,18.778,3.222,11,11,0,1,1,3.222,18.778ZM1.5,11A9.5,9.5,0,1,0,11,1.5,9.511,9.511,0,0,0,1.5,11Zm8.75,5V11.75H6a.75.75,0,1,1,0-1.5h4.25V6a.75.75,0,1,1,1.5,0v4.25H16a.75.75,0,0,1,0,1.5H11.75V16a.75.75,0,0,1-1.5,0Z"/>
</svg>
