<svg xmlns="http://www.w3.org/2000/svg" width="14.001" height="14" viewBox="0 0 14.001 14">
  <defs>
    <style>
      .cls-1 {
        opacity: 0;
      }

      .cls-2 {
        fill: #fff;
      }

      .cls-3 {
        opacity: 0.3;
      }

      .cls-4 {
        fill: none;
        stroke: #000;
        stroke-linecap: round;
      }
    </style>
  </defs>
  <g id="组_867" data-name="组 867" transform="translate(20456.001 22413)">
    <g id="Group_5" data-name="Group 5" class="cls-1" transform="translate(-20456 -22413)">
      <path id="Clip_2" data-name="Clip 2" class="cls-2" d="M0,0H14V14H0Z"/>
    </g>
    <g id="组_866" data-name="组 866" class="cls-3" transform="translate(-20641.975 -22420.76)">
      <path id="路径_3344" data-name="路径 3344" d="M198.552,8.772l-.032-.008-.021,0h-11.02a1.571,1.571,0,0,0-1.5,1.614v8.772a1.572,1.572,0,0,0,1.506,1.614h10.989a1.573,1.573,0,0,0,1.5-1.6V10.383A1.578,1.578,0,0,0,198.552,8.772Zm-.084,1.365a.23.23,0,0,1,.223.237v8.763a.24.24,0,0,1-.223.246H187.484a.24.24,0,0,1-.227-.246V10.365a.23.23,0,0,1,.222-.237h10.925l.02,0Z"/>
      <line id="直线_5" data-name="直线 5" class="cls-4" x2="2" y2="2" transform="translate(188.475 13.76)"/>
      <line id="直线_6" data-name="直线 6" class="cls-4" x2="2" y2="2" transform="translate(191.975 13.76)"/>
      <line id="直线_7" data-name="直线 7" class="cls-4" x2="2" y2="2" transform="translate(195.475 13.76)"/>
      <line id="直线_8" data-name="直线 8" class="cls-4" x1="2" y2="2" transform="translate(188.475 13.76)"/>
      <line id="直线_9" data-name="直线 9" class="cls-4" x1="2" y2="2" transform="translate(191.975 13.76)"/>
      <line id="直线_10" data-name="直线 10" class="cls-4" x1="2" y2="2" transform="translate(195.475 13.76)"/>
    </g>
  </g>
</svg>
