<svg xmlns="http://www.w3.org/2000/svg" width="16" height="16.001" viewBox="0 0 16 16.001">
  <defs>
    <style>
      .cls-1 {
        fill: #fff;
        opacity: 0;
      }

      .cls-2 {
        fill: #00c2cc;
      }
    </style>
  </defs>
  <g id="组_758" data-name="组 758" transform="translate(-1131 -297.999)">
    <rect id="矩形_813" data-name="矩形 813" class="cls-1" width="16" height="16" transform="translate(1131 298)"/>
    <path id="灯-f" class="cls-2" d="M212.516,149h2.8a.7.7,0,1,1,0,1.4H208.1a.7.7,0,1,1,0-1.4h2.945v-3.509a.737.737,0,0,1,1.473,0Zm4.124-4.567v2.251a.516.516,0,0,1-1.031,0V144.43H205.54a.751.751,0,0,1-.579-.268.676.676,0,0,1-.137-.6l2.2-8.626a.731.731,0,0,1,.716-.536h8.119a.731.731,0,0,1,.716.536l2.2,8.626a.676.676,0,0,1-.137.6.751.751,0,0,1-.579.268H216.64Z" transform="translate(927.197 163.599)"/>
  </g>
</svg>
