<svg xmlns="http://www.w3.org/2000/svg" width="16" height="16" viewBox="0 0 16 16">
  <defs>
    <style>
      .cls-1 {
        fill: #fff;
        opacity: 0;
      }

      .cls-2 {
        fill: #00c2cc;
      }
    </style>
  </defs>
  <g id="组_982" data-name="组 982" transform="translate(-675 -744)">
    <rect id="矩形_764" data-name="矩形 764" class="cls-1" width="16" height="16" transform="translate(675 744)"/>
    <path id="路径_3406" data-name="路径 3406" class="cls-2" d="M14.909,0H1.091A1.071,1.071,0,0,0,0,1.091V14.909A1.071,1.071,0,0,0,1.091,16H7.618V12.531H6.309a.382.382,0,0,1-.327-.182l-.836-1.418a.392.392,0,0,1,0-.4L6.855,7.986a.449.449,0,0,1,.291-.145H8.854a.331.331,0,0,1,.291.145l1.709,2.545a.392.392,0,0,1,0,.4l-.836,1.418a.382.382,0,0,1-.327.182H8.345V16h6.564A1.071,1.071,0,0,0,16,14.909V1.091A1.071,1.071,0,0,0,14.909,0ZM6.727,5.455a.364.364,0,0,1-.727,0V4a.364.364,0,1,1,.727,0Zm3.273,0a.364.364,0,0,1-.727,0V4A.364.364,0,1,1,10,4Z" transform="translate(675 744)"/>
  </g>
</svg>
