<svg xmlns="http://www.w3.org/2000/svg" width="14" height="14" viewBox="0 0 14 14">
  <defs>
    <style>
      .cls-1 {
        fill: #00c2cc;
      }
    </style>
  </defs>
  <g id="退出" transform="translate(-68.9 -93.6)">
    <path id="路径_3319" data-name="路径 3319" class="cls-1" d="M161.391,186.695H161a.426.426,0,0,0,.39-.434Zm-10.791,0h.39a.426.426,0,0,1-.39-.434ZM161.391,175.4H161a.426.426,0,0,1,.39.434Zm-10.791,0h.39a.426.426,0,0,0-.39.434Zm2.725,5.58a.664.664,0,0,0,.648.68h8.687a.68.68,0,0,0,0-1.359h-8.689A.664.664,0,0,0,153.325,180.98Z" transform="translate(-80.409 -80.444)"/>
    <path id="路径_3320" data-name="路径 3320" class="cls-1" d="M699.49,298a.7.7,0,0,0,0,.96l2.738,2.873a.626.626,0,0,0,.915,0,.7.7,0,0,0,0-.96L700.4,298A.626.626,0,0,0,699.49,298Z" transform="translate(-620.435 -200.815)"/>
    <path id="路径_3321" data-name="路径 3321" class="cls-1" d="M699.49,475.13a.626.626,0,0,0,.915,0l2.738-2.871a.7.7,0,0,0,0-.96.626.626,0,0,0-.915,0l-2.738,2.871A.7.7,0,0,0,699.49,475.13Z" transform="translate(-620.435 -371.242)"/>
    <path id="路径_3322" data-name="路径 3322" class="cls-1" d="M81.626,104.132a.664.664,0,0,0-.648.68v1.429H70.195V94.958H80.979v1.429a.649.649,0,1,0,1.3,0v-.751h-.006v-.9A1.1,1.1,0,0,0,81.193,93.6h-.008v0H80.33v0h-9.5v0H69.98v0h-.008A1.1,1.1,0,0,0,68.9,94.636v11.941a1.1,1.1,0,0,0,1.07,1.015h.008v0h.855v.007h9.5v-.007h.855v0h.008a1.1,1.1,0,0,0,1.076-1.129v-.9h0v-.746A.663.663,0,0,0,81.626,104.132Z"/>
  </g>
</svg>
