<svg xmlns="http://www.w3.org/2000/svg" width="155.242" height="40" viewBox="0 0 155.242 40">
  <defs>
    <style>
      .cls-1 {
        fill: #fff;
      }
    </style>
  </defs>
  <g id="组_725" data-name="组 725" transform="translate(816.675 -803.466)">
    <path id="路径_86" data-name="路径 86" class="cls-1" d="M-572.754,803.466a22.342,22.342,0,0,0-18.794,10.242,31.83,31.83,0,0,1,18.794,8.041,31.831,31.831,0,0,1,18.794-8.041A22.342,22.342,0,0,0-572.754,803.466Z" transform="translate(-166.301 0)"/>
    <g id="组_538" data-name="组 538" transform="translate(-745.933 824.951)">
      <line id="直线_1" data-name="直线 1" y1="14.072" x2="15.418" transform="translate(0.174 0.196)"/>
      <rect id="矩形_33" data-name="矩形 33" class="cls-1" width="20.874" height="0.523" transform="matrix(0.738, -0.674, 0.674, 0.738, 0, 14.078)"/>
    </g>
    <g id="组_539" data-name="组 539" transform="translate(-737.013 827.67)">
      <line id="直线_2" data-name="直线 2" y1="5.529" x2="6.058" transform="translate(0.067 0.071)"/>
      <rect id="矩形_34" data-name="矩形 34" class="cls-1" width="8.202" height="0.196" transform="translate(0 5.527) rotate(-42.364)"/>
    </g>
    <g id="组_540" data-name="组 540" transform="translate(-746.007 830.545)">
      <line id="直线_3" data-name="直线 3" y1="6.5" x2="7.121" transform="translate(0.067 0.071)"/>
      <rect id="矩形_35" data-name="矩形 35" class="cls-1" width="9.642" height="0.196" transform="translate(0 6.497) rotate(-42.364)"/>
    </g>
    <path id="路径_87" data-name="路径 87" class="cls-1" d="M-816.675,885.282h2.793v12.866h2.793V882.9h-5.586Z" transform="translate(0 -58.679)"/>
    <path id="路径_88" data-name="路径 88" class="cls-1" d="M-774.985,884.56a6.8,6.8,0,0,0-4.627-1.658,6.794,6.794,0,0,0-4.627,1.658,5.08,5.08,0,0,0-1.9,3.953v9.636h2.793v-9.636a2.953,2.953,0,0,1,1.077-2.267,3.841,3.841,0,0,1,2.658-.964,3.859,3.859,0,0,1,2.642.964,2.937,2.937,0,0,1,1.094,2.267v9.636h2.793v-9.636A5.081,5.081,0,0,0-774.985,884.56Z" transform="translate(-22.556 -58.679)"/>
    <path id="路径_89" data-name="路径 89" class="cls-1" d="M-716.135,884.56a6.8,6.8,0,0,0-4.627-1.658,6.8,6.8,0,0,0-4.627,1.658,5.08,5.08,0,0,0-1.9,3.953v9.636h2.793v-9.636a2.953,2.953,0,0,1,1.077-2.267,3.842,3.842,0,0,1,2.659-.964,3.858,3.858,0,0,1,2.641.964,2.936,2.936,0,0,1,1.094,2.267v9.636h2.793v-9.636A5.082,5.082,0,0,0-716.135,884.56Z" transform="translate(-66.029 -58.679)"/>
    <path id="路径_90" data-name="路径 90" class="cls-1" d="M-668.31,885.169h3.7V896.5a3.008,3.008,0,0,1-1.06,2.3,3.776,3.776,0,0,1-2.641.965v2.381a6.734,6.734,0,0,0,4.6-1.66,5.132,5.132,0,0,0,1.892-3.988V882.9h-6.494Z" transform="translate(-109.597 -58.679)"/>
    <path id="路径_91" data-name="路径 91" class="cls-1" d="M-623.432,884.563a6.728,6.728,0,0,0-4.61-1.661,6.773,6.773,0,0,0-4.644,1.661,5.14,5.14,0,0,0-1.884,3.989V892.5a5.137,5.137,0,0,0,1.884,3.989,6.77,6.77,0,0,0,4.644,1.661,6.724,6.724,0,0,0,4.61-1.661,5.14,5.14,0,0,0,1.885-3.989v-3.946A5.143,5.143,0,0,0-623.432,884.563Zm-.909,7.938a2.986,2.986,0,0,1-1.084,2.3,3.8,3.8,0,0,1-2.617.966,3.841,3.841,0,0,1-2.651-.966,2.984,2.984,0,0,1-1.084-2.3v-3.95a2.985,2.985,0,0,1,1.084-2.3,3.842,3.842,0,0,1,2.651-.966,3.8,3.8,0,0,1,2.617.966,2.987,2.987,0,0,1,1.084,2.3Z" transform="translate(-134.52 -58.679)"/>
    <path id="路径_92" data-name="路径 92" class="cls-1" d="M-567.683,892.509a6.73,6.73,0,0,0,3.752-2.041,5.166,5.166,0,0,0,1.464-3.6V882.9h-2.793v3.967a3.006,3.006,0,0,1-1.12,2.338,3.99,3.99,0,0,1-2.716.978,4.036,4.036,0,0,1-2.75-.978,3.005,3.005,0,0,1-1.12-2.338V882.9h-2.793v3.967a5.165,5.165,0,0,0,1.464,3.6,6.727,6.727,0,0,0,3.752,2.041v5.555h2.861Z" transform="translate(-177.964 -58.679)"/>
    <path id="路径_93" data-name="路径 93" class="cls-1" d="M-339.842,884.65a6.762,6.762,0,0,0-4.6-1.649,6.76,6.76,0,0,0-4.6,1.649,5.055,5.055,0,0,0-1.892,3.933v9.586h2.779v-9.586a2.938,2.938,0,0,1,1.071-2.256,3.823,3.823,0,0,1,2.645-.958,3.841,3.841,0,0,1,2.628.958,2.923,2.923,0,0,1,1.088,2.256v2.4h-6.444v2.678h6.444v4.507h2.779v-9.586A5.056,5.056,0,0,0-339.842,884.65Z" transform="translate(-344.037 -58.752)"/>
    <path id="路径_94" data-name="路径 94" class="cls-1" d="M-292.348,888.236v9.889h2.8l-.009-9.761q0-2.693,3.193-2.693h1.987v-2.762h-1.987Q-292.348,882.909-292.348,888.236Z" transform="translate(-387.318 -58.684)"/>
    <path id="路径_95" data-name="路径 95" class="cls-1" d="M-246.628,895.421a4.827,4.827,0,0,1-2.6-.6,2.084,2.084,0,0,1-.947-1.9v-2.5h3.549v-2.693h-3.549v-4.841h-2.8v9.977a5.048,5.048,0,0,0,1.443,3.963,7.782,7.782,0,0,0,4.905,1.289h1.6v-2.693Z" transform="translate(-416.402 -58.667)"/>
    <path id="路径_96" data-name="路径 96" class="cls-1" d="M-482.715,889.144a9.03,9.03,0,0,0-2.794-.323h-2.438a5.129,5.129,0,0,1-1.915-.256,1.45,1.45,0,0,1-.857-1.469,1.38,1.38,0,0,1,1.024-1.547,10.855,10.855,0,0,1,2.026-.134h6.8v-2.706H-488.4q-1.347,0-2.026.067a3.88,3.88,0,0,0-2.928,1.492,4.967,4.967,0,0,0-.935,2.928,4.62,4.62,0,0,0,.4,1.909,4.029,4.029,0,0,0,1.113,1.486,5.86,5.86,0,0,0,3.718.935h2.817a3.757,3.757,0,0,1,1.7.29,1.713,1.713,0,0,1,.935,1.614,1.565,1.565,0,0,1-.8,1.436,4.906,4.906,0,0,1-2.227.334h-6.936v2.705h7.637a17.185,17.185,0,0,0,2.6-.145,3.635,3.635,0,0,0,2.683-1.859,4.886,4.886,0,0,0,.635-2.483,5.743,5.743,0,0,0-.49-2.36A3.49,3.49,0,0,0-482.715,889.144Z" transform="translate(-238.142 -58.536)"/>
    <path id="路径_97" data-name="路径 97" class="cls-1" d="M-418.875,882.56a5.33,5.33,0,0,0-5.638,1.66c-.1.111-.149.135-.254.021a5.524,5.524,0,0,0-7.1-1.074,5.389,5.389,0,0,0-2.556,4.147c.048.011.049,6.974.049,10.172,0,.3,0,.3.309.3l2.474,0v-9.733a2.948,2.948,0,0,1,2.478-2.954q.147-.02.291-.025a2.761,2.761,0,0,1,2.777,2.8v9.982h2.793v-10.14a2.738,2.738,0,0,1,2.788-2.781,2.868,2.868,0,0,1,.29.028,2.944,2.944,0,0,1,2.445,2.945v9.93c.372,0,.744.011,1.115.01.559,0,1.118-.01,1.677-.015l.051-.053c0-.085.012-.171.012-.256q0-4.814,0-9.628a9.938,9.938,0,0,0-.078-1.023A5.323,5.323,0,0,0-418.875,882.56Z" transform="translate(-282.371 -58.246)"/>
  </g>
</svg>
