<svg id="Group_5" data-name="Group 5" xmlns="http://www.w3.org/2000/svg" width="14" height="14" viewBox="0 0 14 14">
  <defs>
    <style>
      .cls-1 {
        fill: none;
      }

      .cls-2 {
        fill: #fff;
      }
    </style>
  </defs>
  <path id="Clip_2" data-name="Clip 2" class="cls-1" d="M0,0H14V14H0Z"/>
  <path id="Fill_1" data-name="Fill 1" class="cls-2" d="M.538,0A.588.588,0,0,0,0,.627V2.6a.588.588,0,0,0,.538.627A.588.588,0,0,0,1.077,2.6V.627A.588.588,0,0,0,.538,0Z" transform="translate(6.462 7.538)"/>
  <path id="Fill_3" data-name="Fill 3" class="cls-2" d="M10.857,14H.989a.989.989,0,0,1-.7-.294A1,1,0,0,1,0,13V6.524a1.018,1.018,0,0,1,.29-.709.988.988,0,0,1,.7-.293H2.743l0-2.3a3.2,3.2,0,0,1,3-3.214C5.8,0,5.867,0,5.928,0A3.118,3.118,0,0,1,8.175.947a3.273,3.273,0,0,1,.926,2.3v.216a.617.617,0,1,1-1.234,0V3.219a1.944,1.944,0,1,0-3.887,0v2.3l6.877,0a1,1,0,0,1,.989,1V13a1,1,0,0,1-.29.708A.976.976,0,0,1,10.857,14ZM1.236,6.771l0,0v5.973l9.376,0,0-5.976-9.375,0Z" transform="translate(1.077)"/>
</svg>
