<svg xmlns="http://www.w3.org/2000/svg" width="20" height="20" viewBox="0 0 20 20">
  <defs>
    <style>
      .cls-1 {
        fill: #fff;
      }
    </style>
  </defs>
  <g id="组_809" data-name="组 809" transform="translate(-178.066 -341.798)">
    <path id="路径_3192" data-name="路径 3192" class="cls-1" d="M186.16,354.81l1.91,1.89,1.22-1.21-1.46-1.45A2.739,2.739,0,0,0,186.16,354.81Z" transform="translate(0 0)"/>
    <path id="路径_3193" data-name="路径 3193" class="cls-1" d="M185.04,351.24a6.412,6.412,0,0,0-1.42,1.06l1.27,1.25a4.517,4.517,0,0,1,1.49-.97Z" transform="translate(0)"/>
    <path id="路径_3194" data-name="路径 3194" class="cls-1" d="M191.77,353.03l.75-.73a6.292,6.292,0,0,0-3.18-1.7Z" transform="translate(0 0)"/>
    <path id="路径_3195" data-name="路径 3195" class="cls-1" d="M182.44,348.64a9.249,9.249,0,0,0-1.37,1.13l1.28,1.27a7.729,7.729,0,0,1,1.39-1.1Z" transform="translate(0 0)"/>
    <path id="路径_3196" data-name="路径 3196" class="cls-1" d="M188.07,348.69a8.063,8.063,0,0,1,5.72,2.35l1.28-1.27a10,10,0,0,0-9.19-2.63l1.57,1.57C187.66,348.7,187.86,348.69,188.07,348.69Z" transform="translate(0 0)"/>
    <path id="路径_3197" data-name="路径 3197" class="cls-1" d="M198.066,351.8a9.992,9.992,0,0,0-16.516-7.576l-.025-.026-1.061,1.061.026.025a9.991,9.991,0,0,0,14.091,14.092l.025.025,1.061-1.06-.025-.025A9.955,9.955,0,0,0,198.066,351.8Zm-10-8a8,8,0,0,1,6.159,13.1l-4.2-4.2h0l-2.22-2.22h0l-4.842-4.841A7.964,7.964,0,0,1,188.066,343.8Zm0,16a8,8,0,0,1-6.159-13.1l1.408,1.409-.005,0,1.34,1.34,0,0,1.763,1.762,1.072,1.08h.007l5.667,5.668A7.96,7.96,0,0,1,188.066,359.8Z"/>
  </g>
</svg>
