<svg xmlns="http://www.w3.org/2000/svg" width="14" height="14" viewBox="0 0 14 14">
  <defs>
    <style>
      .cls-1 {
        opacity: 0;
      }

      .cls-2 {
        fill: #fff;
      }

      .cls-3 {
        fill: #00c2cc;
      }
    </style>
  </defs>
  <g id="组_869" data-name="组 869" transform="translate(20456 22413)">
    <g id="Group_5" data-name="Group 5" class="cls-1" transform="translate(-20456 -22413)">
      <path id="Clip_2" data-name="Clip 2" class="cls-2" d="M0,0H14V14H0Z"/>
    </g>
    <g id="安全_密码_锁_安全_保护_线性_扁平_填充_单色_简约_圆润" data-name="安全,密码,锁,安全,保护,线性,扁平,填充,单色,简约,圆润" transform="translate(-20639.438 -22482.59)">
      <path id="路径_3335" data-name="路径 3335" class="cls-3" d="M195.916,75.428h-1.844V73.351a3.638,3.638,0,1,0-7.271,0v2.074h-1.835a.532.532,0,0,0-.528.536v6.275a1.336,1.336,0,0,0,1.314,1.352h9.381a1.328,1.328,0,0,0,1.3-1.352V75.964A.529.529,0,0,0,195.916,75.428Zm-8.071-2.074a2.592,2.592,0,1,1,5.182,0v2.077h-5.182Zm7.545,8.886a.264.264,0,0,1-.258.27H185.75a.272.272,0,0,1-.268-.27V76.509h9.906V82.24Z"/>
      <path id="路径_3336" data-name="路径 3336" class="cls-3" d="M478.342,610.614a.532.532,0,0,0,.523-.541v-1.949a.523.523,0,1,0-1.046,0v1.948A.534.534,0,0,0,478.342,610.614Z" transform="translate(-287.906 -529.483)"/>
    </g>
  </g>
</svg>
