<svg xmlns="http://www.w3.org/2000/svg" width="21" height="21" viewBox="0 0 21 21">
  <defs>
    <style>
      .cls-1 {
        fill: #00c2cc;
        stroke: rgba(0,0,0,0);
      }
    </style>
  </defs>
  <g id="组_752" data-name="组 752" transform="translate(85.75 -8.501)">
    <path id="路径_3109" data-name="路径 3109" class="cls-1" d="M-75.25,9a10,10,0,0,0-10,10,10,10,0,0,0,10,10,10,10,0,0,0,10-10A10,10,0,0,0-75.25,9Zm0,17.778A7.787,7.787,0,0,1-83.028,19a7.786,7.786,0,0,1,7.778-7.778A7.786,7.786,0,0,1-67.472,19,7.787,7.787,0,0,1-75.25,26.779Z"/>
    <path id="路径_3110" data-name="路径 3110" class="cls-1" d="M-70.361,16a3.89,3.89,0,0,0-3.889,3.889h2.222a1.668,1.668,0,0,1,1.667-1.667,1.664,1.664,0,0,1,1.667,1.667,1.668,1.668,0,0,1-1.667,1.667h-1.109V24.89h2.222V23.614a3.89,3.89,0,0,0,2.776-3.725A3.886,3.886,0,0,0-70.361,16Z" transform="translate(-4.889 -3.111)"/>
    <rect id="矩形_452" data-name="矩形 452" class="cls-1" width="2.222" height="2.222" transform="translate(-76.359 22.89)"/>
  </g>
</svg>
