<svg xmlns="http://www.w3.org/2000/svg" width="14" height="14.002" viewBox="0 0 14 14.002">
  <defs>
    <style>
      .cls-1 {
        opacity: 0.5;
      }

      .cls-2 {
        fill: #fff;
      }
    </style>
  </defs>
  <g id="组_624" data-name="组 624" class="cls-1" transform="translate(-56.889 -56.91)">
    <path id="路径_3297" data-name="路径 3297" class="cls-2" d="M70.333,61.19l-5.762-4.071a1.21,1.21,0,0,0-1.361,0l-5.765,4.068a1.245,1.245,0,0,0-.556,1.016v7.4A1.424,1.424,0,0,0,58.4,70.912H69.377A1.424,1.424,0,0,0,70.889,69.6V62.207A1.244,1.244,0,0,0,70.333,61.19Zm-.78,7.969a.517.517,0,0,1-.157.372.755.755,0,0,1-.537.213H58.922a.651.651,0,0,1-.7-.587V62.494a.679.679,0,0,1,.3-.55l5.056-3.607a.524.524,0,0,1,.306-.095.537.537,0,0,1,.31.1l5.055,3.606a.68.68,0,0,1,.3.55Z"/>
    <path id="路径_3298" data-name="路径 3298" class="cls-2" d="M63.98,63.764a.764.764,0,0,0-.809.706v2.691a.817.817,0,0,0,1.618,0V64.47A.763.763,0,0,0,63.98,63.764Z" transform="translate(-0.088 -0.096)"/>
  </g>
</svg>
