<svg xmlns="http://www.w3.org/2000/svg" width="14" height="14" viewBox="0 0 14 14">
  <defs>
    <style>
      .cls-1, .cls-2 {
        fill: #fff;
      }

      .cls-1 {
        opacity: 0;
      }
    </style>
  </defs>
  <g id="Group_17" data-name="Group 17" transform="translate(0 -0.5)">
    <rect id="矩形_20" data-name="矩形 20" class="cls-1" width="14" height="14" transform="translate(0 0.5)"/>
    <path id="路径_89" data-name="路径 89" class="cls-2" d="M-86.576,120.539H-95.6a1.5,1.5,0,0,0-1.488,1.51v10.98a1.5,1.5,0,0,0,1.488,1.51h9.023a1.5,1.5,0,0,0,1.489-1.51v-10.98A1.5,1.5,0,0,0-86.576,120.539Zm-1.789,1.19v3.018l-.956-.485a.589.589,0,0,0-.263-.062.589.589,0,0,0-.263.062l-.956.485v-3.018Zm-7.55,11.3v-10.98a.319.319,0,0,1,.316-.32h1.162v11.621H-95.6A.319.319,0,0,1-95.915,133.029Zm9.656,0a.319.319,0,0,1-.317.32h-6.688V121.729h1.289v3.98a.6.6,0,0,0,.278.506.581.581,0,0,0,.571.027l1.542-.782,1.542.782a.589.589,0,0,0,.263.062.586.586,0,0,0,.309-.089.6.6,0,0,0,.278-.506v-3.98h.616a.319.319,0,0,1,.317.32Z" transform="translate(98.087 -120.039)"/>
  </g>
</svg>
