<svg xmlns="http://www.w3.org/2000/svg" width="14" height="14" viewBox="0 0 14 14">
  <defs>
    <style>
      .cls-1, .cls-2 {
        fill: #fff;
      }

      .cls-1 {
        opacity: 0;
      }
    </style>
  </defs>
  <g id="Group_17" data-name="Group 17" transform="translate(0 -0.5)">
    <rect id="矩形_20" data-name="矩形 20" class="cls-1" width="14" height="14" transform="translate(0 0.5)"/>
    <g id="组_541" data-name="组 541" transform="translate(-1071 246.471)">
      <path id="路径_86" data-name="路径 86" class="cls-2" d="M1083.333-245.971h-8.667a1.59,1.59,0,0,0-1.667,1.5v11a1.59,1.59,0,0,0,1.667,1.5h8.667a1.59,1.59,0,0,0,1.667-1.5v-11A1.59,1.59,0,0,0,1083.333-245.971Zm.556,12.5a.53.53,0,0,1-.556.5h-8.667a.53.53,0,0,1-.556-.5v-.784h9.778Zm0-1.784h-9.778v-9.216a.53.53,0,0,1,.556-.5h8.667a.53.53,0,0,1,.556.5Z" transform="translate(-1)"/>
      <path id="路径_93" data-name="路径 93" class="cls-2" d="M.406.563h3v3h-3Z" transform="translate(1074 -239.971)"/>
      <path id="路径_94" data-name="路径 94" class="cls-2" d="M.619.572h3v3h-3Z" transform="translate(1078 -239.971)"/>
      <ellipse id="椭圆_1" data-name="椭圆 1" class="cls-2" cx="1" cy="1" rx="1" ry="1" transform="translate(1077 -243.971)"/>
    </g>
  </g>
</svg>
