<svg xmlns="http://www.w3.org/2000/svg" width="14.001" height="14" viewBox="0 0 14.001 14">
  <defs>
    <style>
      .cls-1 {
        opacity: 0.5;
      }

      .cls-2 {
        fill: #dcdcdc;
        opacity: 0;
      }

      .cls-3 {
        fill: #fff;
      }
    </style>
  </defs>
  <g id="消息" class="cls-1" transform="translate(0.001 -0.012)">
    <rect id="矩形_10" data-name="矩形 10" class="cls-2" width="14" height="14" transform="translate(0 0.012)"/>
    <g id="个人号运营工具" transform="translate(-101.852 -163.329)">
      <path id="路径_20" data-name="路径 20" class="cls-3" d="M114.656,174.239H103.046a1.2,1.2,0,0,1-1.195-1.21v-7.478a1.2,1.2,0,0,1,1.195-1.21h11.611a1.2,1.2,0,0,1,1.195,1.21v7.478A1.2,1.2,0,0,1,114.656,174.239Zm-11.611-8.861a.172.172,0,0,0-.171.173v7.478a.172.172,0,0,0,.171.173h11.611a.172.172,0,0,0,.171-.173v-7.478a.172.172,0,0,0-.171-.173Z"/>
      <path id="路径_21" data-name="路径 21" class="cls-3" d="M258.511,300.935a.508.508,0,0,1-.361-.15.516.516,0,0,1,0-.727l2.81-2.825a.509.509,0,0,1,.723,0l1.325,1.332,2.773-2.788a.509.509,0,0,1,.723,0,.516.516,0,0,1,0,.727l-3.134,3.151a.509.509,0,0,1-.723,0l-1.325-1.332-2.449,2.462A.508.508,0,0,1,258.511,300.935Zm7.426,4.35h-7.221a.514.514,0,0,1,0-1.027h7.221a.514.514,0,0,1,0,1.027Z" transform="translate(-153.475 -128.944)"/>
    </g>
  </g>
</svg>
