<svg xmlns="http://www.w3.org/2000/svg" width="14" height="14" viewBox="0 0 14 14">
  <defs>
    <style>
      .cls-1 {
        fill: #fff;
      }
    </style>
  </defs>
  <path id="人工智能" class="cls-1" d="M5.6,10.267l.467.933H2.333v1.867h9.333V11.2H7.933l.467-.933h3.267a.933.933,0,0,1,.933.933v1.867a.933.933,0,0,1-.933.933H2.333a.933.933,0,0,1-.933-.933V11.2a.933.933,0,0,1,.933-.933ZM3.733.933h6.533a.933.933,0,0,1,.933.933V8.4a.933.933,0,0,1-.933.933H3.733A.933.933,0,0,1,2.8,8.4V1.867A.933.933,0,0,1,3.733.933Zm0,.933V8.4h6.533V1.867H3.733Zm8.4,1.4a.467.467,0,0,1,.467.467v2.8a.467.467,0,1,1-.933,0v-2.8a.467.467,0,0,1,.467-.467Zm-10.267,0a.467.467,0,0,1,.467.467v2.8a.467.467,0,0,1-.933,0v-2.8a.467.467,0,0,1,.467-.467ZM13.533,4.2A.467.467,0,0,1,14,4.667V5.6a.467.467,0,1,1-.933,0V4.667A.467.467,0,0,1,13.533,4.2ZM.467,4.2a.467.467,0,0,1,.467.467V5.6A.467.467,0,0,1,0,5.6V4.667A.467.467,0,0,1,.467,4.2ZM5.133,5.6a.7.7,0,1,0-.7-.7A.7.7,0,0,0,5.133,5.6Zm3.733,0a.7.7,0,1,0-.7-.7A.7.7,0,0,0,8.867,5.6ZM7,0a.467.467,0,0,1,.467.467V1.4a.467.467,0,1,1-.933,0V.467A.467.467,0,0,1,7,0ZM6.067,8.4a.467.467,0,0,1,.467.467v1.867a.467.467,0,0,1-.933,0V8.867A.467.467,0,0,1,6.067,8.4Zm1.867,0a.467.467,0,0,1,.467.467v1.867a.467.467,0,0,1-.933,0V8.867A.467.467,0,0,1,7.933,8.4Z"/>
</svg>
