<svg xmlns="http://www.w3.org/2000/svg" width="20" height="20" viewBox="0 0 20 20">
  <defs>
    <style>
      .cls-1 {
        fill: #00c2cc;
      }
    </style>
  </defs>
  <g id="组_751" data-name="组 751" transform="translate(0 -0.002)">
    <path id="路径_133" data-name="路径 133" class="cls-1" d="M15.333,7a3.333,3.333,0,1,0,3.333,3.333A3.333,3.333,0,0,0,15.333,7Zm0,4.444a1.111,1.111,0,1,1,1.111-1.111A1.112,1.112,0,0,1,15.333,11.444Z" transform="translate(-5.333 -3.11)"/>
    <path id="路径_134" data-name="路径 134" class="cls-1" d="M10,0A10,10,0,0,0,3.389,17.5h0A9.929,9.929,0,0,0,10,20h0A10,10,0,0,0,10,0ZM10,17.78a7.694,7.694,0,0,1-4.094-1.172h0a4.444,4.444,0,0,1,8.189,0h0A7.694,7.694,0,0,1,10,17.78Zm5.839-2.656h0a6.661,6.661,0,0,0-11.678,0A7.694,7.694,0,0,1,2.222,10a7.778,7.778,0,1,1,15.556,0A7.694,7.694,0,0,1,15.839,15.124Z" transform="translate(0 0)"/>
  </g>
</svg>
