<svg xmlns="http://www.w3.org/2000/svg" width="14" height="14" viewBox="0 0 14 14">
  <defs>
    <style>
      .cls-1 {
        fill: #00c2cc;
      }
    </style>
  </defs>
  <path id="用户" class="cls-1" d="M13.989,35.434c-.007-.288-.013-.548-.013-.718a.623.623,0,0,0-.031-.194,2.023,2.023,0,0,0-1.457-1.214c-.131-.048-.256-.093-.37-.143-.252-.111-.514-.229-.778-.348l-.071-.032c-.392-.177-.793-.357-1.17-.519a.564.564,0,0,0-.067-.024l-.411-.118a2.441,2.441,0,0,1-.161-.3,5.485,5.485,0,0,0,.317-.479,5.914,5.914,0,0,0,.817-2.991,5.693,5.693,0,0,0-1.18-4.041,3.2,3.2,0,0,0-2.407-.948h0c-1.483,0-3.224.711-3.537,3.914-.033.331-.05.689-.05,1.076q0,.117,0,.235c.007.17.022.339.044.508a5.946,5.946,0,0,0,.12.649c.035.143.075.284.12.423l.008.025c.008.023.016.045.024.068a5.708,5.708,0,0,0,.815,1.562l-.016.032-.028.057-.013.024-.034.064-.022.039-.007.012q-.017.029-.036.058h0l-.006.009-.411.117a.564.564,0,0,0-.067.024c-.4.171-.827.364-1.241.551-.265.119-.527.237-.778.348-.114.051-.238.1-.37.143A2.023,2.023,0,0,0,.069,34.522a.623.623,0,0,0-.031.194c0,.17-.006.43-.013.718C.014,35.9,0,36.422.009,36.786a.582.582,0,0,0,.569.584H13.436a.582.582,0,0,0,.569-.584c.007-.363-.005-.888-.016-1.351Zm-6.1.743H1.148c0-.233.009-.482.014-.714s.01-.452.012-.62c.093-.163.316-.26.724-.408.143-.052.291-.106.44-.171.254-.112.518-.231.785-.352.4-.179.81-.365,1.191-.529l.52-.149a.554.554,0,0,0,.173-.084,1.906,1.906,0,0,0,.524-.706c.013-.026.026-.053.038-.08l.021-.044c.042-.089.084-.18.125-.273l.026-.058a.617.617,0,0,0,.053-.25s0,0,0-.005a.642.642,0,0,0-.005-.067c0-.006,0-.013,0-.019s-.007-.035-.011-.052,0-.022-.007-.032a.583.583,0,0,0-.021-.056c0-.008-.006-.017-.009-.025a.6.6,0,0,0-.094-.147,4.633,4.633,0,0,1-1.069-2.571q-.019-.2-.019-.406c0-.319.012-.612.035-.88.162-1.878.855-2.566,1.587-2.8a2.679,2.679,0,0,1,.826-.115,2.373,2.373,0,0,1,1.136.246c.711.38,1.313,1.318,1.313,3.551a4.738,4.738,0,0,1-.531,2.153,4.22,4.22,0,0,1-.556.824.594.594,0,0,0-.094.146.619.619,0,0,0-.054.246s0,0,0,0c0,.018,0,.036,0,.054s0,.022,0,.033,0,.018.005.027.007.04.012.059v0a.614.614,0,0,0,.029.08l.025.058a2.7,2.7,0,0,0,.709,1.1.556.556,0,0,0,.173.084l.52.149c.329.142.68.3,1.026.455l.167.075h0c.266.12.53.239.783.351.149.066.3.12.44.171.407.148.63.244.724.408,0,.168.007.385.012.62s.011.482.014.714H7.89Z" transform="translate(-0.007 -23.37)"/>
</svg>
