<svg xmlns="http://www.w3.org/2000/svg" width="83.749" height="30" viewBox="0 0 83.749 30">
  <defs>
    <style>
      .cls-1, .cls-2 {
        fill: #fff;
      }

      .cls-1 {
        opacity: 0;
      }

      .cls-2 {
        stroke: rgba(0,0,0,0);
        stroke-miterlimit: 10;
      }
    </style>
  </defs>
  <g id="组_13593" data-name="组 13593" transform="translate(-888.132 -242)">
    <rect id="矩形_6098" data-name="矩形 6098" class="cls-1" width="82" height="30" transform="translate(889 242)"/>
    <g id="组_13476" data-name="组 13476" transform="translate(889 244.251)">
      <path id="路径_4954" data-name="路径 4954" class="cls-2" d="M447.358,254.4l.049-.3a6.481,6.481,0,0,0,.082-1.17v-5.8a6.392,6.392,0,0,0-.082-1.169l-.05-.3h1.622l-.055.308a6.6,6.6,0,0,0-.092,1.165v5.8a6.582,6.582,0,0,0,.092,1.167l.053.306Z" transform="translate(-412.065 -241.055)"/>
      <path id="路径_4955" data-name="路径 4955" class="cls-2" d="M494.554,254.222a3.748,3.748,0,0,1-2.015-.582,4.081,4.081,0,0,1-1.458-1.6,4.678,4.678,0,0,1-.528-2.186,4.851,4.851,0,0,1,.522-2.228,4.084,4.084,0,0,1,1.443-1.616,3.667,3.667,0,0,1,2.006-.589,3.762,3.762,0,0,1,2.018.582,4.053,4.053,0,0,1,1.465,1.6,4.9,4.9,0,0,1,.006,4.415,4.082,4.082,0,0,1-1.448,1.61A3.692,3.692,0,0,1,494.554,254.222Zm-.025-7.51a2.439,2.439,0,0,0-1.934.894,3.243,3.243,0,0,0-.789,2.221,3.16,3.16,0,0,0,.811,2.212,2.551,2.551,0,0,0,3.859.021,3.47,3.47,0,0,0-.01-4.455A2.5,2.5,0,0,0,494.529,246.712Z" transform="translate(-425.336 -240.986)"/>
      <path id="路径_4956" data-name="路径 4956" class="cls-2" d="M460.085,254.4l-5.3-5.531V253.1a6.328,6.328,0,0,0,.089,1l.053.306h-1.62l.048-.3a6.259,6.259,0,0,0,.082-1.087v-7.356h.2L459,251.2V247.13a6.257,6.257,0,0,0-.1-1.17l-.049-.3h1.62l-.053.306a6.474,6.474,0,0,0-.107,1.167V254.4Z" transform="translate(-413.895 -241.055)"/>
      <path id="路径_4957" data-name="路径 4957" class="cls-2" d="M475.329,254.4l-5.3-5.531V253.1a6.321,6.321,0,0,0,.089,1l.053.306h-1.619l.048-.3a6.148,6.148,0,0,0,.082-1.087v-7.356h.2l5.36,5.539V247.13a6.187,6.187,0,0,0-.1-1.17l-.048-.3h1.619l-.053.306a6.447,6.447,0,0,0-.108,1.167V254.4Z" transform="translate(-418.578 -241.055)"/>
      <path id="路径_4958" data-name="路径 4958" class="cls-2" d="M507.65,254.4h-.129l.049-.3a6.094,6.094,0,0,0,.078-1.11v-.261l0-.131v-2.31l-2.819-4.631h1.539l1.918,3.153,1.9-3.153h1.537l-2.77,4.63v2.832a6.007,6.007,0,0,0,.085.978l.053.306h-1.44Z" transform="translate(-429.722 -241.055)"/>
      <path id="路径_4959" data-name="路径 4959" class="cls-2" d="M482.859,254.61l-.009-1.271.233-.024a.8.8,0,0,0,.779-.6,4.953,4.953,0,0,0,.1-1.279v-4.626a6.359,6.359,0,0,0-.091-.854l-.049-.3h1.62l-.053.306a7.242,7.242,0,0,0-.091.721v4.79a6.375,6.375,0,0,1-.18,1.749,1.842,1.842,0,0,1-.746,1.022,2.195,2.195,0,0,1-1.258.365Z" transform="translate(-422.969 -241.055)"/>
      <g id="组_977" data-name="组 977" transform="translate(34.593 16.395)">
        <path id="路径_4960" data-name="路径 4960" class="cls-2" d="M463,270.768l.024-.151c.031-.2.054-.358.069-.537h-3.174v-1.047h3.19v-.556h-3.128v-3.993h3.128v-1.056a5.991,5.991,0,0,0-.085-.787l-.024-.151h1.251l-.027.153c-.019.11-.038.262-.055.445h3.014v1.047h-3.043v.349h3.128v3.993h-3.128v.556h3.19v1.047h-3.169c.016.177.037.382.064.534l.027.153Zm3.237-3.338v-.313h-5.226v.313Zm0-1.36v-.539h-5.226v.539Z" transform="translate(-450.517 -262.431)"/>
        <path id="路径_4961" data-name="路径 4961" class="cls-2" d="M451.3,264.845v-.722h-2.621v.722h-1.03v-.722h-1.3v-1.047h1.275c-.015-.171-.037-.327-.068-.519l-.024-.151h1.251l-.026.154c-.026.148-.047.345-.063.517h2.575c-.015-.171-.038-.327-.068-.519l-.024-.151h1.251l-.027.154c-.026.148-.047.345-.062.517h1.5v1.047h-1.508v.722Z" transform="translate(-446.349 -262.406)"/>
        <path id="路径_4962" data-name="路径 4962" class="cls-2" d="M453.625,271.65a4.238,4.238,0,0,1-3.152-1.169,3.111,3.111,0,0,1-.384-.5,3.134,3.134,0,0,1-.386.5,4.237,4.237,0,0,1-3.152,1.169h-.13v-1.046l.127,0a3.276,3.276,0,0,0,2.4-.837,2.169,2.169,0,0,0,.423-.644h-3.025v-1.046h.283v-1.784h2.937c-.015-.22-.04-.406-.077-.64l-.024-.151h1.251l-.027.153c-.032.188-.057.455-.073.639h2.933v1.784h.283v1.046H450.8a2.175,2.175,0,0,0,.423.645,3.279,3.279,0,0,0,2.4.837l.126,0v1.046Zm-1.1-3.575v-.737H450.6v.737Zm-2.948,0v-.737h-1.911v.737Z" transform="translate(-446.349 -263.321)"/>
      </g>
      <g id="组_978" data-name="组 978">
        <path id="路径_4963" data-name="路径 4963" class="cls-2" d="M409.171,239.122a15.105,15.105,0,0,0-12.755,7.065,21.434,21.434,0,0,1,12.755,5.547,21.435,21.435,0,0,1,12.756-5.547A15.107,15.107,0,0,0,409.171,239.122Z" transform="translate(-396.416 -239.122)"/>
        <path id="路径_4964" data-name="路径 4964" class="cls-2" d="M412,272.686a7.553,7.553,0,0,0,6.378-3.533A10.712,10.712,0,0,1,412,266.38a10.712,10.712,0,0,1-6.378,2.774A7.553,7.553,0,0,0,412,272.686Z" transform="translate(-399.244 -247.186)"/>
      </g>
    </g>
  </g>
</svg>
