<svg xmlns="http://www.w3.org/2000/svg" width="40" height="40" viewBox="0 0 40 40">
  <defs>
    <style>
      .cls-1 {
        fill: #6c00ff;
      }

      .cls-2 {
        fill: #fff;
      }
    </style>
  </defs>
  <g id="组_13594" data-name="组 13594" transform="translate(1821 23370)">
    <rect id="矩形_6135" data-name="矩形 6135" class="cls-1" width="40" height="40" rx="20" transform="translate(-1821 -23370)"/>
    <path id="路径_25530" data-name="路径 25530" class="cls-2" d="M1057.709,487.857l-6.868,5.093a.884.884,0,0,0-.358.709v3.5a.882.882,0,0,0,.376.722l7.455,5.247a.889.889,0,0,0,1.348-.424l4.305-11.955a.889.889,0,0,1,1.31-.449l6.891,4.339a.882.882,0,0,1,.011,1.488l-7.434,4.829a.883.883,0,0,0-.4.741v3.772a.888.888,0,0,0,1.371.742l12.366-7.993a.883.883,0,0,0,.4-.742v-3.951a.884.884,0,0,0-.4-.742l-12.8-8.285a.889.889,0,0,0-1.329.471l-4.313,13.345a.889.889,0,0,1-1.356.452l-3.8-2.667a.882.882,0,0,1-.018-1.434l4.358-3.221a.883.883,0,0,0,.359-.73l-.049-2.167a.888.888,0,0,0-1.418-.689" transform="translate(-2865.483 -23845.355)"/>
  </g>
</svg>
