<svg xmlns="http://www.w3.org/2000/svg" width="88" height="30" viewBox="0 0 88 30">
  <defs>
    <style>
      .cls-1, .cls-2 {
        fill: #fff;
      }

      .cls-1 {
        opacity: 0;
      }
    </style>
  </defs>
  <g id="组_13592" data-name="组 13592" transform="translate(-1040 -242)">
    <rect id="矩形_6097" data-name="矩形 6097" class="cls-1" width="88" height="30" transform="translate(1040 242)"/>
    <g id="组_13477" data-name="组 13477" transform="translate(1040 242)">
      <g id="组_975" data-name="组 975" transform="translate(0)">
        <path id="路径_4915" data-name="路径 4915" class="cls-2" d="M1214.045,476.59a2.234,2.234,0,1,1,2.231,2.356,2.251,2.251,0,0,1-2.231-2.356m4.055,0a1.842,1.842,0,1,0-1.824,1.995,1.892,1.892,0,0,0,1.824-1.995m-2.67-1.293h.868c.473,0,.923.2.923.789a.7.7,0,0,1-.473.669l.594,1.041h-.473l-.473-.91h-.549v.91h-.417Zm.758,1.249c.363,0,.594-.121.594-.438,0-.263-.132-.449-.56-.449h-.374v.888Z" transform="translate(-1176.644 -474.223)"/>
        <g id="组_13596" data-name="组 13596" transform="translate(-0.849 0.602)">
          <ellipse id="椭圆_458" data-name="椭圆 458" class="cls-2" cx="0.224" cy="0.214" rx="0.224" ry="0.214" transform="translate(57.622 20.398)"/>
          <ellipse id="椭圆_459" data-name="椭圆 459" class="cls-2" cx="0.224" cy="0.214" rx="0.224" ry="0.214" transform="translate(63.077 20.398)"/>
          <path id="路径_4916" data-name="路径 4916" class="cls-2" d="M1259.736,567.051h.306l.313,1.162c.044.184.081.358.121.539h.015c.048-.181.088-.355.14-.539l.32-1.162h.3l.325,1.162c.048.184.092.358.14.539h.015c.044-.181.081-.355.129-.539l.306-1.162h.287l-.545,1.954h-.365l-.3-1.089c-.056-.188-.092-.366-.14-.565h-.019c-.044.2-.084.384-.144.568l-.291,1.086h-.354Z" transform="translate(-1211.887 -545.883)"/>
          <path id="路径_4917" data-name="路径 4917" class="cls-2" d="M1271.971,567.051h.306l.313,1.162c.045.184.081.358.122.539h.015c.048-.181.089-.355.14-.539l.321-1.162h.3l.324,1.162c.048.184.092.358.14.539h.014c.044-.181.081-.355.129-.539l.306-1.162h.288l-.546,1.954h-.365l-.3-1.089c-.055-.188-.092-.366-.14-.565h-.018c-.045.2-.085.384-.144.568l-.291,1.086h-.354Z" transform="translate(-1221.207 -545.883)"/>
          <path id="路径_4918" data-name="路径 4918" class="cls-2" d="M1284.206,567.051h.306l.313,1.162c.044.184.081.358.122.539h.015c.048-.181.088-.355.14-.539l.321-1.162h.3l.325,1.162c.047.184.092.358.14.539h.015c.044-.181.081-.355.129-.539l.306-1.162h.287l-.546,1.954h-.365l-.3-1.089c-.055-.188-.092-.366-.14-.565h-.018c-.044.2-.085.384-.143.568l-.292,1.086h-.354Z" transform="translate(-1230.527 -545.883)"/>
          <path id="路径_4919" data-name="路径 4919" class="cls-2" d="M1296.55,574.045a.227.227,0,1,1,.225.226A.223.223,0,0,1,1296.55,574.045Z" transform="translate(-1239.93 -551.102)"/>
          <rect id="矩形_4605" data-name="矩形 4605" class="cls-2" width="0.299" height="1.933" transform="translate(57.697 21.191)"/>
          <path id="路径_4920" data-name="路径 4920" class="cls-2" d="M1305.228,567.071l.243,0,.03.31h.011a.98.98,0,0,1,.671-.328c.417,0,.608.258.608.745v1.21h-.3v-1.175c0-.367-.118-.529-.394-.529a.8.8,0,0,0-.568.31v1.393h-.3Z" transform="translate(-1246.54 -545.883)"/>
          <path id="路径_4921" data-name="路径 4921" class="cls-2" d="M1314.586,567.07h.24l.032.308h.011a.978.978,0,0,1,.671-.328c.416,0,.608.258.608.745v1.21h-.3v-1.175c0-.367-.118-.529-.395-.529a.8.8,0,0,0-.568.31v1.393h-.3Z" transform="translate(-1253.668 -545.883)"/>
          <path id="路径_4922" data-name="路径 4922" class="cls-2" d="M1321.825,569.884l.059-.219a.739.739,0,0,0,.2.035c.206,0,.25-.152.25-.385v-2.182h.3v2.186c0,.385-.147.614-.52.614A.768.768,0,0,1,1321.825,569.884Z" transform="translate(-1259.182 -545.945)"/>
          <path id="路径_4923" data-name="路径 4923" class="cls-2" d="M1327.471,568.056a.919.919,0,1,1,.914.995A.924.924,0,0,1,1327.471,568.056Zm1.522,0c0-.455-.25-.762-.608-.762s-.6.307-.6.762.247.755.6.755S1328.993,568.508,1328.993,568.056Z" transform="translate(-1263.483 -545.883)"/>
          <path id="路径_4924" data-name="路径 4924" class="cls-2" d="M1336.14,569.865l.063-.233a.5.5,0,0,0,.155.028c.228,0,.376-.184.464-.431l.044-.148-.816-1.945h.314l.436,1.12c.063.166.132.363.2.536h.018c.055-.173.114-.37.169-.536l.382-1.12h.3l-.77,2.111c-.133.363-.339.656-.726.656A.631.631,0,0,1,1336.14,569.865Z" transform="translate(-1270.018 -545.949)"/>
          <path id="路径_4925" data-name="路径 4925" class="cls-2" d="M1344.316,568.79l.151-.194a.913.913,0,0,0,.6.229c.276,0,.413-.141.413-.318,0-.2-.24-.3-.464-.374-.284-.1-.6-.226-.6-.55,0-.3.247-.533.675-.533a1.018,1.018,0,0,1,.6.212l-.144.187a.787.787,0,0,0-.461-.17c-.266,0-.387.134-.387.289,0,.19.221.265.45.342.291.109.616.219.616.582,0,.3-.251.558-.711.558A1.229,1.229,0,0,1,1344.316,568.79Z" transform="translate(-1276.313 -545.883)"/>
          <path id="路径_4926" data-name="路径 4926" class="cls-2" d="M1352.453,567.071h.24l.033.312h.011a.9.9,0,0,1,.62-.332.519.519,0,0,1,.549.371.978.978,0,0,1,.663-.371c.406,0,.6.258.6.745v1.21h-.3v-1.175c0-.367-.122-.529-.388-.529a.764.764,0,0,0-.523.31v1.393h-.3v-1.175c0-.367-.122-.529-.391-.529a.766.766,0,0,0-.52.31v1.393h-.3Z" transform="translate(-1282.512 -545.883)"/>
          <path id="路径_4927" data-name="路径 4927" class="cls-2" d="M1366.127,568.515c0-.416.379-.621,1.234-.713,0-.258-.081-.512-.423-.512a1.106,1.106,0,0,0-.6.212l-.122-.2a1.49,1.49,0,0,1,.774-.251c.483,0,.675.314.675.773v1.182h-.247l-.026-.233h-.011a1.092,1.092,0,0,1-.671.279A.525.525,0,0,1,1366.127,568.515Zm1.234.039V568c-.7.078-.944.24-.944.5,0,.229.166.321.369.321A.873.873,0,0,0,1367.361,568.554Z" transform="translate(-1292.928 -545.883)"/>
          <path id="路径_4928" data-name="路径 4928" class="cls-2" d="M1375.315,567.072l.241,0,.032.376h.011a.687.687,0,0,1,.564-.4.45.45,0,0,1,.211.042l-.059.251a.535.535,0,0,0-.188-.032c-.17,0-.376.12-.513.451v1.242h-.3Z" transform="translate(-1299.926 -545.883)"/>
          <path id="路径_4929" data-name="路径 4929" class="cls-2" d="M1380.444,566.771v-1.094h-.3v-.219l.313-.018.033-.54h.254v.54h.549v.236h-.549v1.1c0,.233.074.374.313.374a.738.738,0,0,0,.232-.049l.059.215a1.261,1.261,0,0,1-.354.071C1380.576,567.392,1380.444,567.145,1380.444,566.771Z" transform="translate(-1303.603 -544.223)"/>
          <path id="路径_4930" data-name="路径 4930" class="cls-2" d="M1386.7,574.045a.227.227,0,1,1,.225.226A.223.223,0,0,1,1386.7,574.045Z" transform="translate(-1308.598 -551.102)"/>
          <path id="路径_4931" data-name="路径 4931" class="cls-2" d="M1390.365,568.056a.939.939,0,0,1,.948-1.005.844.844,0,0,1,.582.229l-.158.19a.6.6,0,0,0-.413-.176.683.683,0,0,0-.648.762.667.667,0,0,0,.641.755.764.764,0,0,0,.483-.194l.133.19a.98.98,0,0,1-.641.244A.909.909,0,0,1,1390.365,568.056Z" transform="translate(-1311.39 -545.883)"/>
          <path id="路径_4932" data-name="路径 4932" class="cls-2" d="M1397.837,568.056a.919.919,0,1,1,.913.995A.924.924,0,0,1,1397.837,568.056Zm1.522,0c0-.455-.25-.762-.609-.762s-.6.307-.6.762.247.755.6.755S1399.359,568.508,1399.359,568.056Z" transform="translate(-1317.082 -545.883)"/>
          <path id="路径_4933" data-name="路径 4933" class="cls-2" d="M1407.8,567.071h.24l.033.312h.011a.9.9,0,0,1,.619-.332.519.519,0,0,1,.549.371.978.978,0,0,1,.664-.371c.405,0,.6.258.6.745v1.21h-.3v-1.175c0-.367-.121-.529-.387-.529a.765.765,0,0,0-.523.31v1.393h-.3v-1.175c0-.367-.122-.529-.391-.529a.768.768,0,0,0-.52.31v1.393h-.3Z" transform="translate(-1324.669 -545.883)"/>
        </g>
        <g id="组_974" data-name="组 974" transform="translate(44 8.001)">
          <path id="路径_4934" data-name="路径 4934" class="cls-2" d="M1293.6,522.715a8.953,8.953,0,0,0,1.211-2.325.162.162,0,0,1,.205-.1l.326.113a.161.161,0,0,1,.1.207,9.649,9.649,0,0,1-1.251,2.486.16.16,0,0,1-.2.039l-.337-.183a.159.159,0,0,1-.051-.238m8.675-3.594h-7.313a.161.161,0,0,1-.161-.172l.319-4.548a.161.161,0,0,1,.161-.15h7.313a.161.161,0,0,1,.161.172l-.32,4.548a.161.161,0,0,1-.161.15m-6.575-.647h2.461a.162.162,0,0,0,.161-.15l.082-1.17a.161.161,0,0,0-.161-.172h-2.46a.161.161,0,0,0-.161.15l-.082,1.17a.161.161,0,0,0,.161.172m.148-2.106h2.46a.161.161,0,0,0,.161-.15l.081-1.148a.161.161,0,0,0-.161-.172h-2.461a.161.161,0,0,0-.161.15l-.081,1.148a.162.162,0,0,0,.161.172m3.895,6.716c.513,0,.645-.162.776-1.2a.161.161,0,0,1,.228-.126,2.626,2.626,0,0,0,.323.127.16.16,0,0,1,.109.176c-.2,1.362-.47,1.691-1.418,1.691h-2.289c-1.134,0-1.426-.219-1.369-1.031l.146-2.088a.161.161,0,0,1,.161-.149h.4a.161.161,0,0,1,.161.172l-.145,2.065c-.021.3.1.362.734.362Zm-.36-1.759a11.23,11.23,0,0,0-1.888-1.392.16.16,0,0,1-.022-.258l.25-.219a.161.161,0,0,1,.182-.021,9.906,9.906,0,0,1,2,1.386.16.16,0,0,1,0,.232l-.294.275a.161.161,0,0,1-.223,0m2.293-4.344h-2.394a.161.161,0,0,0-.161.15l-.082,1.17a.161.161,0,0,0,.161.172h2.395a.16.16,0,0,0,.16-.15l.082-1.17a.161.161,0,0,0-.161-.172m.146-2.084h-2.394a.161.161,0,0,0-.161.15l-.08,1.148a.161.161,0,0,0,.161.172h2.395a.161.161,0,0,0,.161-.15l.08-1.148a.16.16,0,0,0-.161-.172m.144,5.314a10.723,10.723,0,0,1,1.28,2.442.161.161,0,0,1-.089.2l-.435.187a.161.161,0,0,1-.218-.1,10.533,10.533,0,0,0-1.17-2.4.161.161,0,0,1,.078-.237l.363-.143a.161.161,0,0,1,.192.057" transform="translate(-1281.998 -513.77)"/>
          <path id="路径_4935" data-name="路径 4935" class="cls-2" d="M1396.657,521.323c-.028.395-.085.792-.393.844a10.459,10.459,0,0,1-1.341.031.2.2,0,0,1-.164-.151,2.732,2.732,0,0,0-.1-.339.162.162,0,0,1,.16-.213c.432.013.79.012.921,0s.19-.044.2-.187l.084-1.2a.162.162,0,0,0-.161-.172h-2.13a.162.162,0,0,0-.161.15l-.136,1.949a.161.161,0,0,1-.161.149h-.358a.161.161,0,0,1-.161-.172l.406-5.787a.161.161,0,0,1,.161-.15h3.528a.161.161,0,0,1,.161.172Zm-.289-8.363a9.607,9.607,0,0,1,1.157,2.124.161.161,0,0,1-.088.2l-.356.157a.162.162,0,0,1-.217-.09c-.036-.095-.079-.2-.122-.3a.163.163,0,0,0-.161-.1c-2.435.165-3.119.224-3.415.288a.159.159,0,0,1-.188-.119c-.029-.122-.071-.271-.111-.4a.156.156,0,0,1,.074-.187,1.475,1.475,0,0,0,.414-.381,11.861,11.861,0,0,0,1.252-1.833.161.161,0,0,1,.191-.078l.4.127a.161.161,0,0,1,.089.237,14.407,14.407,0,0,1-1.172,1.636.16.16,0,0,0,.133.263l1.938-.108a.161.161,0,0,0,.134-.236,10.139,10.139,0,0,0-.524-.889.16.16,0,0,1,.073-.236l.31-.128a.161.161,0,0,1,.193.055m-.277,6.239.052-.742a.161.161,0,0,0-.161-.172h-2.13a.161.161,0,0,0-.161.15l-.052.742a.161.161,0,0,0,.161.172h2.13a.162.162,0,0,0,.161-.15m-2.29-2.344-.047.676a.161.161,0,0,0,.161.172h2.13a.162.162,0,0,0,.161-.15l.048-.676a.161.161,0,0,0-.161-.172h-2.13a.161.161,0,0,0-.161.149m7.128,4.7c.43,0,.549-.19.678-1.211a.163.163,0,0,1,.231-.128,2.392,2.392,0,0,0,.3.116.163.163,0,0,1,.113.177c-.188,1.345-.447,1.694-1.31,1.694h-2.328c-1.012,0-.942-.235-.883-1.08l.269-3.564a.161.161,0,0,1,.161-.15h.392a.161.161,0,0,1,.161.172l-.1,1.362a.161.161,0,0,0,.207.165,13.945,13.945,0,0,0,2.531-1.015.163.163,0,0,1,.208.039l.227.287a.161.161,0,0,1-.054.244,17.141,17.141,0,0,1-3.069,1.1.16.16,0,0,0-.118.143l-.086,1.235c-.024.351.081.417.609.417Zm-1.634-4.584c-1,0-1.261-.219-1.2-1.053l.248-3.536a.161.161,0,0,1,.161-.15h.4a.161.161,0,0,1,.161.172l-.1,1.467a.161.161,0,0,0,.21.165,20.477,20.477,0,0,0,2.377-.927.162.162,0,0,1,.193.039l.241.277a.162.162,0,0,1-.061.255,29.665,29.665,0,0,1-2.912,1,.16.16,0,0,0-.115.143l-.076,1.084c-.024.34.06.406.577.406h1.827c.4,0,.513-.157.631-1.038a.162.162,0,0,1,.236-.122,2.121,2.121,0,0,0,.294.122.161.161,0,0,1,.111.176c-.179,1.2-.435,1.52-1.252,1.52Z" transform="translate(-1358.497 -512.211)"/>
          <path id="路径_4936" data-name="路径 4936" class="cls-2" d="M1356.291,537.949h-6.321a.161.161,0,0,0-.161.15l-.27,3.783a.172.172,0,0,0,.172.172l6.29-.005a.161.161,0,0,0,.162-.149l.288-3.778a.161.161,0,0,0-.161-.173m-.8,3.316a.161.161,0,0,1-.161.15h-4.87a.161.161,0,0,1-.161-.172l.059-.841a.161.161,0,0,1,.161-.15h4.87a.161.161,0,0,1,.161.172Zm.122-1.744a.161.161,0,0,1-.161.15h-4.87a.161.161,0,0,1-.161-.172l.055-.786a.162.162,0,0,1,.161-.15h4.87a.161.161,0,0,1,.161.172Z" transform="translate(-1325.167 -532.064)"/>
          <path id="路径_4937" data-name="路径 4937" class="cls-2" d="M1346.422,516.208a.16.16,0,0,1,.223-.038c.464.326,1.084.789,1.409,1.071a.161.161,0,0,0,.215,0l.289-.269a.16.16,0,0,0-.018-.249c-.4-.276-1.238-.811-1.658-1.066a.159.159,0,0,1-.064-.2v0a.162.162,0,0,1,.149-.1h1.8a.161.161,0,0,0,.161-.15l.02-.281a.161.161,0,0,0-.161-.172h-1.6a.161.161,0,0,1-.16-.179c.01-.082.016-.16.021-.238l.036-.519a.161.161,0,0,1,.161-.149h1.36a.161.161,0,0,0,.161-.15l.02-.282a.161.161,0,0,0-.161-.172h-2.614a.16.16,0,0,1-.146-.228c.064-.133.123-.268.178-.4a.161.161,0,0,0-.118-.218l-.33-.066a.16.16,0,0,0-.18.1,6.144,6.144,0,0,1-1.2,1.92.159.159,0,0,0,.033.249c.093.054.19.118.27.175a.161.161,0,0,0,.212-.018,6.453,6.453,0,0,0,.637-.83.161.161,0,0,1,.135-.073h.73a.161.161,0,0,1,.161.172l-.034.486c-.007.091-.013.188-.028.29a.162.162,0,0,1-.16.138h-2a.161.161,0,0,0-.161.149l-.02.282a.161.161,0,0,0,.161.172h1.743a.161.161,0,0,1,.143.236,3.846,3.846,0,0,1-2.071,1.689.16.16,0,0,0-.056.255,2.362,2.362,0,0,1,.193.242.162.162,0,0,0,.2.053,5.061,5.061,0,0,0,2.122-1.622" transform="translate(-1320.792 -512.142)"/>
          <path id="路径_4938" data-name="路径 4938" class="cls-2" d="M1370.864,517.261l-.125,1.776a.16.16,0,0,1-.161.15h-2.053a.161.161,0,0,1-.161-.172l.146-2.08a.161.161,0,0,1,.161-.15h1.741l.05-.658h-2.439a.161.161,0,0,0-.161.15l-.239,3.407a.161.161,0,0,0,.161.172h3.462a.161.161,0,0,0,.161-.149l.171-2.445Z" transform="translate(-1339.114 -515.218)"/>
          <path id="路径_4939" data-name="路径 4939" class="cls-2" d="M1247.028,514.252h-3.341a.161.161,0,0,0-.161.15l-.025.358a.161.161,0,0,0,.161.172h1.027a.162.162,0,0,1,.157.2,11.578,11.578,0,0,1-1.8,4.072.158.158,0,0,0-.016.169,3.517,3.517,0,0,1,.163.394.162.162,0,0,0,.281.044q.074-.1.145-.2a.161.161,0,0,1,.292.106l-.2,2.375a.161.161,0,0,0,.164.174l.5-.01h2.018a.161.161,0,0,0,.161-.15l.329-4.327a.167.167,0,0,0-.168-.172h-1.773a.16.16,0,0,1-.15-.22,20.4,20.4,0,0,0,.759-2.336.161.161,0,0,1,.156-.12H1247a.161.161,0,0,0,.161-.15l.025-.359a.161.161,0,0,0-.161-.172m-2.214,4.014h1.206a.161.161,0,0,1,.161.172l-.212,3.013a.162.162,0,0,1-.161.15H1244.6a.161.161,0,0,1-.161-.172l.211-3.012a.161.161,0,0,1,.161-.15" transform="translate(-1243.017 -513.771)"/>
          <path id="路径_4940" data-name="路径 4940" class="cls-2" d="M1259.177,514.252a.161.161,0,0,0-.161.15l-.024.347a.161.161,0,0,0,.161.172h1.983a.161.161,0,0,1,.161.172l-.054.764a.161.161,0,0,1-.161.15h-2.032a.161.161,0,0,0-.161.15l-.265,3.78a.161.161,0,0,0,.161.172h1.891a.162.162,0,0,1,.157.2,3.764,3.764,0,0,1-.561,1.26.165.165,0,0,1-.25.023,3.383,3.383,0,0,1-.717-1.038.162.162,0,0,0-.191-.091l-.317.088a.16.16,0,0,0-.105.217,4.245,4.245,0,0,0,.874,1.3.161.161,0,0,1-.013.244,5.3,5.3,0,0,1-1.69.836.16.16,0,0,0-.082.247,3.179,3.179,0,0,1,.181.275.162.162,0,0,0,.192.072,5.924,5.924,0,0,0,1.962-1.071.162.162,0,0,1,.2-.011,7.943,7.943,0,0,0,3.37,1.111.162.162,0,0,0,.16-.076,3.506,3.506,0,0,1,.219-.318.161.161,0,0,0-.107-.259,7.92,7.92,0,0,1-3.13-.919.161.161,0,0,1-.044-.234,4.733,4.733,0,0,0,.765-1.729.161.161,0,0,1,.157-.126h2.23a.161.161,0,0,0,.161-.15l.287-3.779a.162.162,0,0,0-.162-.172H1262.1a.161.161,0,0,1-.161-.172l.054-.764a.161.161,0,0,1,.161-.149l2.169,0a.152.152,0,0,0,.16-.139l.026-.353a.163.163,0,0,0-.162-.174Zm1.853,4.628c-.011.17-.023.326-.039.491a.161.161,0,0,1-.161.145h-1.344a.161.161,0,0,1-.161-.172l.061-.863a.162.162,0,0,1,.161-.15h1.349a.161.161,0,0,1,.161.172Zm.089-1.257a.162.162,0,0,1-.161.15h-1.349a.161.161,0,0,1-.161-.172l.06-.852a.161.161,0,0,1,.161-.15h1.349a.161.161,0,0,1,.161.172Zm2.331,1.744a.161.161,0,0,1-.161.15h-1.441a.162.162,0,0,1-.161-.177c.015-.153.026-.3.037-.459l.028-.4a.161.161,0,0,1,.161-.15h1.437a.161.161,0,0,1,.161.172Zm-1.416-2.768h1.437a.161.161,0,0,1,.161.172l-.06.852a.161.161,0,0,1-.161.15h-1.437a.161.161,0,0,1-.161-.172l.06-.852a.161.161,0,0,1,.161-.15" transform="translate(-1254.38 -513.771)"/>
        </g>
        <path id="路径_4941" data-name="路径 4941" class="cls-2" d="M1059.568,488.762l-8.635,6.41a1.113,1.113,0,0,0-.45.893v4.405a1.112,1.112,0,0,0,.472.909l9.374,6.6a1.117,1.117,0,0,0,1.695-.533l5.413-15.046a1.117,1.117,0,0,1,1.647-.565l8.664,5.461a1.111,1.111,0,0,1,.013,1.873l-9.347,6.078a1.112,1.112,0,0,0-.507.932v4.747a1.116,1.116,0,0,0,1.724.934l15.547-10.061a1.112,1.112,0,0,0,.509-.934V495.9a1.113,1.113,0,0,0-.508-.933l-16.093-10.428a1.117,1.117,0,0,0-1.67.592l-5.422,16.8a1.117,1.117,0,0,1-1.7.569l-4.783-3.357a1.111,1.111,0,0,1-.023-1.8l5.479-4.054a1.112,1.112,0,0,0,.451-.919l-.061-2.728a1.117,1.117,0,0,0-1.783-.868" transform="translate(-1050.483 -482.044)"/>
      </g>
    </g>
  </g>
</svg>
