<svg id="提示" xmlns="http://www.w3.org/2000/svg" width="24" height="24" viewBox="0 0 24 24">
  <defs>
    <style>
      .cls-1 {
        fill: #0fe;
      }
    </style>
  </defs>
  <g id="Group_3" data-name="Group 3">
    <circle id="Oval" class="cls-1" cx="12" cy="12" r="12"/>
    <path id="Shape" d="M1.648,13.076a1.471,1.471,0,0,1-.255-.022A1.386,1.386,0,0,1,.644,12.7,1.817,1.817,0,0,1,.193,12a3.039,3.039,0,0,1-.185-.861,3.148,3.148,0,0,1,.13-1.085l.437-1.2.544-1.741a4.218,4.218,0,0,0,.257-.958A1.583,1.583,0,0,1,1.5,5.531,1.977,1.977,0,0,1,2.04,5,4.042,4.042,0,0,1,2.559,4.6a3.131,3.131,0,0,1,.407-.163,1.662,1.662,0,0,1,.55-.108.75.75,0,0,1,.668.371c.222.405-.164.827-.329,1.007a2.875,2.875,0,0,0-.4.517,8.782,8.782,0,0,0-.393.842C2.9,7.46,2.752,7.841,2.63,8.2c-.127.376-.256.806-.382,1.28a8.058,8.058,0,0,0-.238,1.147.648.648,0,0,0,.057.421c.017.025.069.1.263.125h.055a2.015,2.015,0,0,0,.364-.044,4.264,4.264,0,0,0,.661-.175,2.7,2.7,0,0,0,.554-.266l.613-.414a1.452,1.452,0,0,1,.617-.217h.1l.209.093.067.1a.714.714,0,0,1-.016.679,1.6,1.6,0,0,1-.581.707c-.222.166-.451.331-.68.489a5.262,5.262,0,0,1-.789.44,7.8,7.8,0,0,1-1.02.371A2.963,2.963,0,0,1,1.648,13.076ZM2.634,3.036l-.054,0a.869.869,0,0,1-.524-.193A1.329,1.329,0,0,1,1.7,2.307a1.322,1.322,0,0,1-.128-.58A1.387,1.387,0,0,1,1.689,1.3,3.342,3.342,0,0,1,2.231.487,1.194,1.194,0,0,1,3.15,0h.038a.829.829,0,0,1,.478.183A1.973,1.973,0,0,1,4.1.947a2.042,2.042,0,0,1,.194.883c-.024.188-.256.445-.689.762A1.857,1.857,0,0,1,2.634,3.036Z" transform="translate(9.176 5.462)"/>
  </g>
</svg>
